<mxfile host="app.diagrams.net" modified="2024-01-05T15:02:51.334Z" agent="Mozilla/5.0 (Windows NT 10.0; Win64; x64) AppleWebKit/537.36 (KHTML, like Gecko) Chrome/120.0.0.0 Safari/537.36" etag="iVF3z-EfhkU-h1P_H9gJ" version="22.1.16" type="device">
  <diagram name="Pagina-1" id="0QhkselIFQTwm5C4Ecvs">
    <mxGraphModel dx="2868" dy="2387" grid="1" gridSize="10" guides="1" tooltips="1" connect="1" arrows="1" fold="1" page="1" pageScale="1" pageWidth="1169" pageHeight="827" math="0" shadow="0">
      <root>
        <mxCell id="0" />
        <mxCell id="1" parent="0" />
        <mxCell id="OTY2_KPXo1e9PzVLkmgH-1" value="&lt;font style=&quot;font-size: 20px;&quot;&gt;&lt;b&gt;EmotionalSongServer&lt;/b&gt;&lt;/font&gt;" style="swimlane;fontStyle=0;childLayout=stackLayout;horizontal=1;startSize=26;fillColor=none;horizontalStack=0;resizeParent=1;resizeParentMax=0;resizeLast=0;collapsible=1;marginBottom=0;whiteSpace=wrap;html=1;fontFamily=Courier New;labelBackgroundColor=#FFFFFF;fontColor=#000000;" parent="1" vertex="1">
          <mxGeometry x="160" y="-580" width="280" height="60" as="geometry" />
        </mxCell>
        <mxCell id="OTY2_KPXo1e9PzVLkmgH-2" value="+ main(String[]): void" style="text;strokeColor=none;fillColor=none;align=left;verticalAlign=top;spacingLeft=4;spacingRight=4;overflow=hidden;rotatable=0;points=[[0,0.5],[1,0.5]];portConstraint=eastwest;whiteSpace=wrap;html=1;fontFamily=Courier New;labelBackgroundColor=#FFFFFF;fontColor=#000000;" parent="OTY2_KPXo1e9PzVLkmgH-1" vertex="1">
          <mxGeometry y="26" width="280" height="34" as="geometry" />
        </mxCell>
        <mxCell id="OTY2_KPXo1e9PzVLkmgH-5" value="&lt;font style=&quot;font-size: 20px;&quot;&gt;EmotionalSongsService&lt;/font&gt;" style="swimlane;fontStyle=1;align=center;verticalAlign=top;childLayout=stackLayout;horizontal=1;startSize=40;horizontalStack=0;resizeParent=1;resizeParentMax=0;resizeLast=0;collapsible=1;marginBottom=0;whiteSpace=wrap;html=1;fontFamily=Courier New;labelBackgroundColor=#FFFFFF;fontColor=#000000;" parent="1" vertex="1">
          <mxGeometry x="100" y="-460" width="400" height="509" as="geometry" />
        </mxCell>
        <mxCell id="OTY2_KPXo1e9PzVLkmgH-6" value="- userLoggedIn: SortedSet&amp;lt;String&amp;gt;&lt;br&gt;- canzoni: Canzoni&lt;br&gt;- persone: Persone&lt;br&gt;- percezioni: Percezioni&lt;br&gt;- playlists: Playlists&lt;br&gt;- instance: EmotionalSongsService" style="text;strokeColor=none;fillColor=none;align=left;verticalAlign=top;spacingLeft=4;spacingRight=4;overflow=hidden;rotatable=0;points=[[0,0.5],[1,0.5]];portConstraint=eastwest;whiteSpace=wrap;html=1;fontFamily=Courier New;labelBackgroundColor=#FFFFFF;fontColor=#000000;" parent="OTY2_KPXo1e9PzVLkmgH-5" vertex="1">
          <mxGeometry y="40" width="400" height="94" as="geometry" />
        </mxCell>
        <mxCell id="OTY2_KPXo1e9PzVLkmgH-7" value="" style="line;strokeWidth=1;fillColor=none;align=left;verticalAlign=middle;spacingTop=-1;spacingLeft=3;spacingRight=3;rotatable=0;labelPosition=right;points=[];portConstraint=eastwest;strokeColor=inherit;fontFamily=Courier New;labelBackgroundColor=#FFFFFF;fontColor=#000000;" parent="OTY2_KPXo1e9PzVLkmgH-5" vertex="1">
          <mxGeometry y="134" width="400" height="8" as="geometry" />
        </mxCell>
        <mxCell id="OTY2_KPXo1e9PzVLkmgH-8" value="&lt;div style=&quot;border-color: var(--border-color);&quot;&gt;- EmotionalSongsService()&lt;/div&gt;&lt;div&gt;+ getInstance(): EmotionalSongsService&lt;/div&gt;&lt;div&gt;&lt;span style=&quot;&quot;&gt;+ cercaBranoMusicale(String): List&amp;lt;Canzone&amp;gt;&lt;/span&gt;&lt;br&gt;&lt;/div&gt;&lt;div&gt;+ cercaBranoMusicale(String, int): List&amp;lt;Canzone&amp;gt;&lt;/div&gt;&lt;div&gt;+ visualizzaEmozioniBrano(String): void&lt;/div&gt;&lt;div&gt;+ Registrazione(UtenteRegistrato): boolean&lt;/div&gt;&lt;div&gt;+ accedi(String, String): boolean&lt;/div&gt;&lt;div&gt;+ logOut(String): void&lt;/div&gt;&lt;div&gt;+ canzoniDaIdPlaylist(String): List&amp;lt;Canzone&amp;gt;&lt;/div&gt;&lt;div&gt;+ RegistraPlaylist(String, String): boolean&lt;/div&gt;&lt;div&gt;- logOut(): void&lt;/div&gt;&lt;div&gt;&lt;div style=&quot;border-color: var(--border-color);&quot;&gt;+ RegistraPlaylist(String): boolean&lt;/div&gt;&lt;/div&gt;&lt;div&gt;+ mostraPlaylist(): boolean&lt;/div&gt;&lt;div&gt;+ aggiungiCanzone(String, String, String): boolean&lt;/div&gt;&lt;div&gt;+ inserisciEmozioni(Percezione, String): boolean&lt;/div&gt;&lt;div&gt;+ cercaCanzone(String): Canzone&amp;nbsp;&lt;/div&gt;&lt;div&gt;+ cercaBraniPerAutore(String): List&amp;lt;Canzone&amp;gt;&amp;nbsp;&lt;/div&gt;&lt;div&gt;+ visualizzaEmozioni(String): ProspettoRiassuntivo&amp;nbsp;&lt;/div&gt;&lt;div&gt;+ aggiungiCompilation(List&amp;lt;Canzone&amp;gt;, String): boolean + controllaCanzoneUtente(String): boolean&lt;/div&gt;&lt;div&gt;+ controllaCanzoneUtente(String,String): boolean&amp;nbsp;&lt;/div&gt;&lt;div&gt;+ controllaEmozioniUtente(String): boolean&amp;nbsp;&lt;/div&gt;&lt;div&gt;+ cercaPlaylistPerUtente(String): List&amp;lt;Playlist&amp;gt;&amp;nbsp;&lt;/div&gt;&lt;div&gt;+ controlloUserid(String): boolean&amp;nbsp;&lt;/div&gt;&lt;div&gt;+ convertitore(String): int&lt;br&gt;&lt;/div&gt;" style="text;strokeColor=none;fillColor=none;align=left;verticalAlign=top;spacingLeft=4;spacingRight=4;overflow=hidden;rotatable=0;points=[[0,0.5],[1,0.5]];portConstraint=eastwest;whiteSpace=wrap;html=1;fontFamily=Courier New;labelBackgroundColor=#FFFFFF;fontColor=#000000;" parent="OTY2_KPXo1e9PzVLkmgH-5" vertex="1">
          <mxGeometry y="142" width="400" height="367" as="geometry" />
        </mxCell>
        <mxCell id="oP-QychcFuWFXIpBvnvE-1" value="&lt;font style=&quot;font-size: 20px;&quot;&gt;Authentication&lt;/font&gt;" style="swimlane;fontStyle=1;align=center;verticalAlign=top;childLayout=stackLayout;horizontal=1;startSize=40;horizontalStack=0;resizeParent=1;resizeParentMax=0;resizeLast=0;collapsible=1;marginBottom=0;whiteSpace=wrap;html=1;fontFamily=Courier New;labelBackgroundColor=#FFFFFF;fontColor=#000000;" vertex="1" parent="1">
          <mxGeometry x="640" y="-350" width="350" height="190" as="geometry" />
        </mxCell>
        <mxCell id="oP-QychcFuWFXIpBvnvE-2" value="- loggedAs: UtenteRegistrato&lt;br&gt;- authentication: Authentication" style="text;strokeColor=none;fillColor=none;align=left;verticalAlign=top;spacingLeft=4;spacingRight=4;overflow=hidden;rotatable=0;points=[[0,0.5],[1,0.5]];portConstraint=eastwest;whiteSpace=wrap;html=1;fontFamily=Courier New;labelBackgroundColor=#FFFFFF;fontColor=#000000;" vertex="1" parent="oP-QychcFuWFXIpBvnvE-1">
          <mxGeometry y="40" width="350" height="40" as="geometry" />
        </mxCell>
        <mxCell id="oP-QychcFuWFXIpBvnvE-3" value="" style="line;strokeWidth=1;fillColor=none;align=left;verticalAlign=middle;spacingTop=-1;spacingLeft=3;spacingRight=3;rotatable=0;labelPosition=right;points=[];portConstraint=eastwest;strokeColor=inherit;fontFamily=Courier New;labelBackgroundColor=#FFFFFF;fontColor=#000000;" vertex="1" parent="oP-QychcFuWFXIpBvnvE-1">
          <mxGeometry y="80" width="350" height="14" as="geometry" />
        </mxCell>
        <mxCell id="oP-QychcFuWFXIpBvnvE-4" value="- Authentication()&lt;br&gt;+ getAuthentication(): Authentication&lt;br&gt;+ setAuthentication(UtenteRegistrato): void&lt;br&gt;+ getLoggedAs(): UtenteRegistrato&lt;br&gt;+ logOut(): void&lt;br&gt;+ isLogged(): boolean" style="text;strokeColor=none;fillColor=none;align=left;verticalAlign=top;spacingLeft=4;spacingRight=4;overflow=hidden;rotatable=0;points=[[0,0.5],[1,0.5]];portConstraint=eastwest;whiteSpace=wrap;html=1;fontFamily=Courier New;labelBackgroundColor=#FFFFFF;fontColor=#000000;" vertex="1" parent="oP-QychcFuWFXIpBvnvE-1">
          <mxGeometry y="94" width="350" height="96" as="geometry" />
        </mxCell>
        <mxCell id="oP-QychcFuWFXIpBvnvE-6" value="&lt;font style=&quot;&quot;&gt;&lt;span style=&quot;font-size: 20px;&quot;&gt;«interface»&lt;/span&gt;&lt;br style=&quot;border-color: var(--border-color);&quot;&gt;&lt;b style=&quot;border-color: var(--border-color);&quot;&gt;&lt;span style=&quot;font-size: 20px;&quot;&gt;Dao&lt;/span&gt;&lt;font style=&quot;font-size: 18px;&quot;&gt;&amp;lt;T&amp;gt;&lt;/font&gt;&lt;/b&gt;&lt;/font&gt;" style="swimlane;fontStyle=0;childLayout=stackLayout;horizontal=1;startSize=50;fillColor=none;horizontalStack=0;resizeParent=1;resizeParentMax=0;resizeLast=0;collapsible=1;marginBottom=0;whiteSpace=wrap;html=1;fontFamily=Courier New;labelBackgroundColor=#FFFFFF;fontColor=#000000;" vertex="1" parent="1">
          <mxGeometry x="1560" y="-717" width="300" height="140" as="geometry" />
        </mxCell>
        <mxCell id="oP-QychcFuWFXIpBvnvE-7" value="~ get(String): Optional&amp;lt;T&amp;gt;&lt;br&gt;~ getAll(): ConcurrentHashMap&amp;lt;String,T&amp;gt;&lt;br&gt;~ save(T): boolean&lt;br&gt;~ update(T, Object[]): boolean&lt;br&gt;~ delete(T): boolean" style="text;strokeColor=none;fillColor=none;align=left;verticalAlign=top;spacingLeft=4;spacingRight=4;overflow=hidden;rotatable=0;points=[[0,0.5],[1,0.5]];portConstraint=eastwest;whiteSpace=wrap;html=1;fontFamily=Courier New;labelBackgroundColor=#FFFFFF;fontColor=#000000;" vertex="1" parent="oP-QychcFuWFXIpBvnvE-6">
          <mxGeometry y="50" width="300" height="90" as="geometry" />
        </mxCell>
        <mxCell id="oP-QychcFuWFXIpBvnvE-10" value="&lt;font style=&quot;&quot;&gt;&lt;span style=&quot;font-size: 20px;&quot;&gt;«interface»&lt;/span&gt;&lt;br style=&quot;border-color: var(--border-color);&quot;&gt;&lt;span style=&quot;font-size: 20px;&quot;&gt;&lt;b&gt;PerceptionDAOInterface&lt;/b&gt;&lt;/span&gt;&lt;br&gt;&lt;/font&gt;" style="swimlane;fontStyle=0;childLayout=stackLayout;horizontal=1;startSize=50;fillColor=none;horizontalStack=0;resizeParent=1;resizeParentMax=0;resizeLast=0;collapsible=1;marginBottom=0;whiteSpace=wrap;html=1;fontFamily=Courier New;labelBackgroundColor=#FFFFFF;fontColor=#000000;" vertex="1" parent="1">
          <mxGeometry x="1760" y="-497" width="420" height="140" as="geometry" />
        </mxCell>
        <mxCell id="oP-QychcFuWFXIpBvnvE-11" value="~ getAll(): ConcurrentHashMap&amp;lt;String,List&amp;lt;Percezione&amp;gt;&amp;gt;&lt;br&gt;~ get(String, String): List&amp;lt;Percezione&amp;gt;&lt;br&gt;~ save(Percezione): boolean&lt;br&gt;~ update(Percezione, Object[]): boolean&lt;br&gt;~ delete(Percezione): boolean" style="text;strokeColor=none;fillColor=none;align=left;verticalAlign=top;spacingLeft=4;spacingRight=4;overflow=hidden;rotatable=0;points=[[0,0.5],[1,0.5]];portConstraint=eastwest;whiteSpace=wrap;html=1;fontFamily=Courier New;labelBackgroundColor=#FFFFFF;fontColor=#000000;" vertex="1" parent="oP-QychcFuWFXIpBvnvE-10">
          <mxGeometry y="50" width="420" height="90" as="geometry" />
        </mxCell>
        <mxCell id="oP-QychcFuWFXIpBvnvE-12" value="&lt;font style=&quot;&quot;&gt;&lt;span style=&quot;font-size: 20px;&quot;&gt;«interface»&lt;/span&gt;&lt;br style=&quot;border-color: var(--border-color);&quot;&gt;&lt;span style=&quot;font-size: 20px;&quot;&gt;&lt;b&gt;PlaylistDAOInterface&lt;/b&gt;&lt;/span&gt;&lt;br&gt;&lt;/font&gt;" style="swimlane;fontStyle=0;childLayout=stackLayout;horizontal=1;startSize=50;fillColor=none;horizontalStack=0;resizeParent=1;resizeParentMax=0;resizeLast=0;collapsible=1;marginBottom=0;whiteSpace=wrap;html=1;fontFamily=Courier New;labelBackgroundColor=#FFFFFF;fontColor=#000000;" vertex="1" parent="1">
          <mxGeometry x="1300" y="-497" width="310" height="80" as="geometry" />
        </mxCell>
        <mxCell id="oP-QychcFuWFXIpBvnvE-13" value="+ addSong(String, String): boolean" style="text;strokeColor=none;fillColor=none;align=left;verticalAlign=top;spacingLeft=4;spacingRight=4;overflow=hidden;rotatable=0;points=[[0,0.5],[1,0.5]];portConstraint=eastwest;whiteSpace=wrap;html=1;fontFamily=Courier New;labelBackgroundColor=#FFFFFF;fontColor=#000000;" vertex="1" parent="oP-QychcFuWFXIpBvnvE-12">
          <mxGeometry y="50" width="310" height="30" as="geometry" />
        </mxCell>
        <mxCell id="oP-QychcFuWFXIpBvnvE-15" value="&amp;lt;&amp;lt;extend&amp;gt;&amp;gt;" style="html=1;verticalAlign=bottom;labelBackgroundColor=#FFFFFF;endArrow=open;endFill=0;dashed=1;rounded=0;entryX=0.628;entryY=1.034;entryDx=0;entryDy=0;entryPerimeter=0;exitX=0.5;exitY=0;exitDx=0;exitDy=0;fontFamily=Courier New;fontColor=#000000;" edge="1" parent="1" source="oP-QychcFuWFXIpBvnvE-10" target="oP-QychcFuWFXIpBvnvE-7">
          <mxGeometry width="160" relative="1" as="geometry">
            <mxPoint x="1630" y="-489" as="sourcePoint" />
            <mxPoint x="1803" y="-567" as="targetPoint" />
          </mxGeometry>
        </mxCell>
        <mxCell id="oP-QychcFuWFXIpBvnvE-20" value="&lt;font style=&quot;font-size: 20px;&quot;&gt;Canzoni&lt;/font&gt;" style="swimlane;fontStyle=1;align=center;verticalAlign=top;childLayout=stackLayout;horizontal=1;startSize=40;horizontalStack=0;resizeParent=1;resizeParentMax=0;resizeLast=0;collapsible=1;marginBottom=0;whiteSpace=wrap;html=1;fontFamily=Courier New;labelBackgroundColor=#FFFFFF;fontColor=#000000;" vertex="1" parent="1">
          <mxGeometry x="1090" y="-300" width="410" height="260" as="geometry" />
        </mxCell>
        <mxCell id="oP-QychcFuWFXIpBvnvE-21" value="- db: Dao&amp;lt;Canzone&amp;gt;&lt;br&gt;- mappa: ConcurrentHashMap&amp;lt;String,Canzone&amp;gt;&lt;br&gt;- instance: Canzoni" style="text;strokeColor=none;fillColor=none;align=left;verticalAlign=top;spacingLeft=4;spacingRight=4;overflow=hidden;rotatable=0;points=[[0,0.5],[1,0.5]];portConstraint=eastwest;whiteSpace=wrap;html=1;fontFamily=Courier New;labelBackgroundColor=#FFFFFF;fontColor=#000000;" vertex="1" parent="oP-QychcFuWFXIpBvnvE-20">
          <mxGeometry y="40" width="410" height="50" as="geometry" />
        </mxCell>
        <mxCell id="oP-QychcFuWFXIpBvnvE-22" value="" style="line;strokeWidth=1;fillColor=none;align=left;verticalAlign=middle;spacingTop=-1;spacingLeft=3;spacingRight=3;rotatable=0;labelPosition=right;points=[];portConstraint=eastwest;strokeColor=inherit;fontFamily=Courier New;labelBackgroundColor=#FFFFFF;fontColor=#000000;" vertex="1" parent="oP-QychcFuWFXIpBvnvE-20">
          <mxGeometry y="90" width="410" height="10" as="geometry" />
        </mxCell>
        <mxCell id="oP-QychcFuWFXIpBvnvE-23" value="- Canzoni()&lt;br&gt;+ getInstance(): Canzoni&lt;br&gt;+ getDb(): Dao&amp;lt;Canzone&amp;gt;&lt;br&gt;+ setDb(Dao&amp;lt;Canzone&amp;gt;): void&lt;br&gt;+ cercaBranoMusicale(String): List&amp;lt;Canzone&amp;gt;&lt;br&gt;+ cercaBranoMusicale(String, int): List&amp;lt;Canzone&amp;gt;&lt;br&gt;+ cercaBraniPerAutore(String): List&amp;lt;Canzone&amp;gt;&lt;br&gt;+ getCanzone(String): Canzone&lt;br&gt;+ getCanzoni(List&amp;lt;String&amp;gt;):List&amp;lt;Canzone&amp;gt;&lt;br style=&quot;border-color: var(--border-color);&quot;&gt;+ update(): boolean" style="text;strokeColor=none;fillColor=none;align=left;verticalAlign=top;spacingLeft=4;spacingRight=4;overflow=hidden;rotatable=0;points=[[0,0.5],[1,0.5]];portConstraint=eastwest;whiteSpace=wrap;html=1;fontFamily=Courier New;labelBackgroundColor=#FFFFFF;fontColor=#000000;" vertex="1" parent="oP-QychcFuWFXIpBvnvE-20">
          <mxGeometry y="100" width="410" height="160" as="geometry" />
        </mxCell>
        <mxCell id="oP-QychcFuWFXIpBvnvE-25" value="&lt;font style=&quot;font-size: 20px;&quot;&gt;Percezioni&lt;/font&gt;" style="swimlane;fontStyle=1;align=center;verticalAlign=top;childLayout=stackLayout;horizontal=1;startSize=40;horizontalStack=0;resizeParent=1;resizeParentMax=0;resizeLast=0;collapsible=1;marginBottom=0;whiteSpace=wrap;html=1;fontFamily=Courier New;labelBackgroundColor=#FFFFFF;fontColor=#000000;" vertex="1" parent="1">
          <mxGeometry x="1670" y="-250" width="410" height="230" as="geometry" />
        </mxCell>
        <mxCell id="oP-QychcFuWFXIpBvnvE-26" value="- db: PerceptionDAOInterface&lt;br&gt;- mappa: ConcurrentHashMap&amp;lt;String,List&amp;lt;Percezione&amp;gt;&amp;gt;&lt;br&gt;- instance: Percezioni" style="text;strokeColor=none;fillColor=none;align=left;verticalAlign=top;spacingLeft=4;spacingRight=4;overflow=hidden;rotatable=0;points=[[0,0.5],[1,0.5]];portConstraint=eastwest;whiteSpace=wrap;html=1;fontFamily=Courier New;labelBackgroundColor=#FFFFFF;fontColor=#000000;" vertex="1" parent="oP-QychcFuWFXIpBvnvE-25">
          <mxGeometry y="40" width="410" height="50" as="geometry" />
        </mxCell>
        <mxCell id="oP-QychcFuWFXIpBvnvE-27" value="" style="line;strokeWidth=1;fillColor=none;align=left;verticalAlign=middle;spacingTop=-1;spacingLeft=3;spacingRight=3;rotatable=0;labelPosition=right;points=[];portConstraint=eastwest;strokeColor=inherit;fontFamily=Courier New;labelBackgroundColor=#FFFFFF;fontColor=#000000;" vertex="1" parent="oP-QychcFuWFXIpBvnvE-25">
          <mxGeometry y="90" width="410" height="10" as="geometry" />
        </mxCell>
        <mxCell id="oP-QychcFuWFXIpBvnvE-28" value="- Percezioni()&lt;br&gt;+ getInstance(): Percezioni&lt;br&gt;+ getDb(): PerceptionDAOInterface&lt;br&gt;+ setDb(PerceptionDAOInterface): void&lt;br style=&quot;border-color: var(--border-color);&quot;&gt;+ cercaEmozioni(String): List&amp;lt;Percezione&amp;gt;&lt;br&gt;+ add(Percezione): void&lt;br&gt;+ controllaEmozioniPersona(String, String): boolean&lt;br style=&quot;border-color: var(--border-color);&quot;&gt;+ update(): boolean" style="text;strokeColor=none;fillColor=none;align=left;verticalAlign=top;spacingLeft=4;spacingRight=4;overflow=hidden;rotatable=0;points=[[0,0.5],[1,0.5]];portConstraint=eastwest;whiteSpace=wrap;html=1;fontFamily=Courier New;labelBackgroundColor=#FFFFFF;fontColor=#000000;" vertex="1" parent="oP-QychcFuWFXIpBvnvE-25">
          <mxGeometry y="100" width="410" height="130" as="geometry" />
        </mxCell>
        <mxCell id="oP-QychcFuWFXIpBvnvE-29" value="&lt;font style=&quot;font-size: 20px;&quot;&gt;Persone&lt;/font&gt;" style="swimlane;fontStyle=1;align=center;verticalAlign=top;childLayout=stackLayout;horizontal=1;startSize=40;horizontalStack=0;resizeParent=1;resizeParentMax=0;resizeLast=0;collapsible=1;marginBottom=0;whiteSpace=wrap;html=1;fontFamily=Courier New;labelBackgroundColor=#FFFFFF;fontColor=#000000;" vertex="1" parent="1">
          <mxGeometry x="1670" y="40" width="410" height="230" as="geometry" />
        </mxCell>
        <mxCell id="oP-QychcFuWFXIpBvnvE-30" value="- db: Dao&amp;lt;UtenteRegistrato&amp;gt;&lt;br&gt;- mappa: ConcurrentHashMap&amp;lt;String,UtenteRegistrato&amp;gt;&lt;br&gt;- instance: Persone" style="text;strokeColor=none;fillColor=none;align=left;verticalAlign=top;spacingLeft=4;spacingRight=4;overflow=hidden;rotatable=0;points=[[0,0.5],[1,0.5]];portConstraint=eastwest;whiteSpace=wrap;html=1;fontFamily=Courier New;labelBackgroundColor=#FFFFFF;fontColor=#000000;" vertex="1" parent="oP-QychcFuWFXIpBvnvE-29">
          <mxGeometry y="40" width="410" height="50" as="geometry" />
        </mxCell>
        <mxCell id="oP-QychcFuWFXIpBvnvE-31" value="" style="line;strokeWidth=1;fillColor=none;align=left;verticalAlign=middle;spacingTop=-1;spacingLeft=3;spacingRight=3;rotatable=0;labelPosition=right;points=[];portConstraint=eastwest;strokeColor=inherit;fontFamily=Courier New;labelBackgroundColor=#FFFFFF;fontColor=#000000;" vertex="1" parent="oP-QychcFuWFXIpBvnvE-29">
          <mxGeometry y="90" width="410" height="10" as="geometry" />
        </mxCell>
        <mxCell id="oP-QychcFuWFXIpBvnvE-32" value="- Persone()&lt;br&gt;+ getInstance(): Persone&lt;br&gt;+ getDb(): Dao&amp;lt;UtenteRegistrato&amp;gt;&lt;br&gt;+ setDb(Dao&amp;lt;UtenteRegistrato&amp;gt;): void&lt;br style=&quot;border-color: var(--border-color);&quot;&gt;+ Registrazione(UtenteRegistrato): boolean&lt;br&gt;+ accedi(String, String): boolean&lt;br&gt;+ contains(String): boolean&lt;br style=&quot;border-color: var(--border-color);&quot;&gt;+ update(): boolean" style="text;strokeColor=none;fillColor=none;align=left;verticalAlign=top;spacingLeft=4;spacingRight=4;overflow=hidden;rotatable=0;points=[[0,0.5],[1,0.5]];portConstraint=eastwest;whiteSpace=wrap;html=1;fontFamily=Courier New;labelBackgroundColor=#FFFFFF;fontColor=#000000;" vertex="1" parent="oP-QychcFuWFXIpBvnvE-29">
          <mxGeometry y="100" width="410" height="130" as="geometry" />
        </mxCell>
        <mxCell id="oP-QychcFuWFXIpBvnvE-33" value="&lt;font style=&quot;font-size: 20px;&quot;&gt;Playlists&lt;/font&gt;" style="swimlane;fontStyle=1;align=center;verticalAlign=top;childLayout=stackLayout;horizontal=1;startSize=30;horizontalStack=0;resizeParent=1;resizeParentMax=0;resizeLast=0;collapsible=1;marginBottom=0;whiteSpace=wrap;html=1;fontFamily=Courier New;labelBackgroundColor=#FFFFFF;fontColor=#000000;" vertex="1" parent="1">
          <mxGeometry x="1090" y="20" width="410" height="270" as="geometry" />
        </mxCell>
        <mxCell id="oP-QychcFuWFXIpBvnvE-34" value="- db: PlaylistDAOInterface&lt;br&gt;- mappa: ConcurrentHashMap&amp;lt;String,List&amp;lt;Playlist&amp;gt;&amp;gt;&lt;br&gt;- instance: Playlists" style="text;strokeColor=none;fillColor=none;align=left;verticalAlign=top;spacingLeft=4;spacingRight=4;overflow=hidden;rotatable=0;points=[[0,0.5],[1,0.5]];portConstraint=eastwest;whiteSpace=wrap;html=1;fontFamily=Courier New;labelBackgroundColor=#FFFFFF;fontColor=#000000;" vertex="1" parent="oP-QychcFuWFXIpBvnvE-33">
          <mxGeometry y="30" width="410" height="50" as="geometry" />
        </mxCell>
        <mxCell id="oP-QychcFuWFXIpBvnvE-35" value="" style="line;strokeWidth=1;fillColor=none;align=left;verticalAlign=middle;spacingTop=-1;spacingLeft=3;spacingRight=3;rotatable=0;labelPosition=right;points=[];portConstraint=eastwest;strokeColor=inherit;fontFamily=Courier New;labelBackgroundColor=#FFFFFF;fontColor=#000000;" vertex="1" parent="oP-QychcFuWFXIpBvnvE-33">
          <mxGeometry y="80" width="410" height="10" as="geometry" />
        </mxCell>
        <mxCell id="oP-QychcFuWFXIpBvnvE-36" value="- Playlists()&lt;br&gt;+ getInstance(): Playlists&lt;br&gt;+ getDb(): PlaylistDAOInterface&lt;br&gt;+ setDb(PlaylistDAOInterface): void&lt;br style=&quot;border-color: var(--border-color);&quot;&gt;+ controllaCanzonePersona(String, String): boolean&lt;br&gt;+ aggiungiCanzone(String, String): boolean&lt;br&gt;+ aggiungiCompilation(List&amp;lt;Canzone&amp;gt;, String): boolean&lt;br&gt;+ cercaPlaylistperNome(String): List&amp;lt;Playlist&amp;gt;&lt;br&gt;+ cercaPlaylistperId(String): Playlist&lt;br&gt;+ cercaPlaylistperIdPersona(String): List&amp;lt;Playlist&amp;gt;&lt;br&gt;+ aggiungiPlaylist(Playlist): boolean&lt;br style=&quot;border-color: var(--border-color);&quot;&gt;+ update(): boolean" style="text;strokeColor=none;fillColor=none;align=left;verticalAlign=top;spacingLeft=4;spacingRight=4;overflow=hidden;rotatable=0;points=[[0,0.5],[1,0.5]];portConstraint=eastwest;whiteSpace=wrap;html=1;fontFamily=Courier New;labelBackgroundColor=#FFFFFF;fontColor=#000000;" vertex="1" parent="oP-QychcFuWFXIpBvnvE-33">
          <mxGeometry y="90" width="410" height="180" as="geometry" />
        </mxCell>
        <mxCell id="oP-QychcFuWFXIpBvnvE-39" value="&lt;font style=&quot;font-size: 20px;&quot;&gt;ConnectionFactory&lt;/font&gt;" style="swimlane;fontStyle=1;align=center;verticalAlign=top;childLayout=stackLayout;horizontal=1;startSize=40;horizontalStack=0;resizeParent=1;resizeParentMax=0;resizeLast=0;collapsible=1;marginBottom=0;whiteSpace=wrap;html=1;fontFamily=Courier New;labelBackgroundColor=#FFFFFF;fontColor=#000000;" vertex="1" parent="1">
          <mxGeometry x="640" y="-130" width="350" height="130" as="geometry" />
        </mxCell>
        <mxCell id="oP-QychcFuWFXIpBvnvE-40" value="- CONNECTION_URL: String&lt;br&gt;- USER: String&lt;br&gt;- PASS: String" style="text;strokeColor=none;fillColor=none;align=left;verticalAlign=top;spacingLeft=4;spacingRight=4;overflow=hidden;rotatable=0;points=[[0,0.5],[1,0.5]];portConstraint=eastwest;whiteSpace=wrap;html=1;fontFamily=Courier New;labelBackgroundColor=#FFFFFF;fontColor=#000000;" vertex="1" parent="oP-QychcFuWFXIpBvnvE-39">
          <mxGeometry y="40" width="350" height="50" as="geometry" />
        </mxCell>
        <mxCell id="oP-QychcFuWFXIpBvnvE-41" value="" style="line;strokeWidth=1;fillColor=none;align=left;verticalAlign=middle;spacingTop=-1;spacingLeft=3;spacingRight=3;rotatable=0;labelPosition=right;points=[];portConstraint=eastwest;strokeColor=inherit;fontFamily=Courier New;labelBackgroundColor=#FFFFFF;fontColor=#000000;" vertex="1" parent="oP-QychcFuWFXIpBvnvE-39">
          <mxGeometry y="90" width="350" height="10" as="geometry" />
        </mxCell>
        <mxCell id="oP-QychcFuWFXIpBvnvE-42" value="+ getConnection(): Connection" style="text;strokeColor=none;fillColor=none;align=left;verticalAlign=top;spacingLeft=4;spacingRight=4;overflow=hidden;rotatable=0;points=[[0,0.5],[1,0.5]];portConstraint=eastwest;whiteSpace=wrap;html=1;fontFamily=Courier New;labelBackgroundColor=#FFFFFF;fontColor=#000000;" vertex="1" parent="oP-QychcFuWFXIpBvnvE-39">
          <mxGeometry y="100" width="350" height="30" as="geometry" />
        </mxCell>
        <mxCell id="oP-QychcFuWFXIpBvnvE-43" value="&lt;font style=&quot;font-size: 50px;&quot;&gt;ServerEs&lt;/font&gt;" style="shape=folder;fontStyle=1;tabWidth=80;tabHeight=30;tabPosition=left;html=1;boundedLbl=1;whiteSpace=wrap;fontFamily=Courier New;labelBackgroundColor=#FFFFFF;fontColor=#000000;" vertex="1" parent="1">
          <mxGeometry x="670" y="-700" width="360" height="130" as="geometry" />
        </mxCell>
      </root>
    </mxGraphModel>
  </diagram>
</mxfile>
